<?xml version="1.0" encoding="UTF-8"?>
<svg id="uuid-4476bcc6-ef01-417c-a1e1-9016f583deb0" data-name="OBJECTS" xmlns="http://www.w3.org/2000/svg" viewBox="0 0 362.11 355.17">
  <defs>
    <style>
      .uuid-c5705d58-e747-42c8-aa9e-5d75b32124ee {
        fill: #ffcd00;
      }

      .uuid-feb3ca4c-16fb-468f-8920-5bf643bb763e {
        fill: #ff7235;
      }
    </style>
  </defs>
  <path class="uuid-c5705d58-e747-42c8-aa9e-5d75b32124ee" d="M182.61,144.13c0-6.8-5.51-12.31-12.31-12.31H52.66c-6.8,0-12.31,5.51-12.31,12.31s5.51,12.31,12.31,12.31h117.64c6.8,0,12.31-5.51,12.31-12.31Z"/>
  <path class="uuid-c5705d58-e747-42c8-aa9e-5d75b32124ee" d="M52.66,114.03h21.89c6.8,0,12.31-5.51,12.31-12.31s-5.51-12.31-12.31-12.31h-21.89c-6.8,0-12.31,5.51-12.31,12.31s5.51,12.31,12.31,12.31Z"/>
  <path class="uuid-c5705d58-e747-42c8-aa9e-5d75b32124ee" d="M12.31,131.81c-3.24,0-6.41,1.31-8.71,3.61S0,140.88,0,144.13s1.31,6.41,3.61,8.71,5.46,3.61,8.71,3.61,6.41-1.31,8.71-3.61c2.29-2.29,3.61-5.46,3.61-8.71s-1.31-6.41-3.61-8.71c-2.29-2.29-5.46-3.61-8.71-3.61Z"/>
  <path class="uuid-c5705d58-e747-42c8-aa9e-5d75b32124ee" d="M123.79,186.87c0-6.8-5.51-12.31-12.31-12.31h-31.46c-6.8,0-12.31,5.51-12.31,12.31s5.51,12.31,12.31,12.31h31.46c6.8,0,12.31-5.51,12.31-12.31Z"/>
  <path class="uuid-feb3ca4c-16fb-468f-8920-5bf643bb763e" d="M336.88,114.64c-15.55-15.57-37.16-25.24-60.91-25.23H111.48c-6.8,0-12.31,5.51-12.31,12.31s5.51,12.31,12.31,12.31h0s164.49,0,164.49,0c17.03,0,32.33,6.87,43.5,18.02,11.15,11.17,18.01,26.47,18.02,43.5h0c0,17.03-6.87,32.33-18.02,43.5-11.17,11.15-26.47,18.01-43.5,18.02h-56.46c-13.42,0-25.72-4.26-35.83-11.51-3.28-2.35-7.48-2.95-11.28-1.61-4.7,1.66-9.6,3.52-14.35,5.38l6.05-9.45c3.35-3.64,4.32-9.05,2.01-13.74l-.12-.24c-.06-.12-.14-.23-.2-.34h0c-3.51-6.27-5.95-13.19-7.08-20.56-1.03-6.72-7.32-11.33-14.04-10.29-6.72,1.03-11.33,7.32-10.29,14.04,1.18,7.65,3.37,14.98,6.43,21.84l-21.03,32.88h0c-1.44,2.2-2.34,5.04-2.33,7.86,0,4.17,1.83,7.93,4.5,10.44,2.66,2.54,6.3,4.01,10.09,4.01,1.82,0,3.64-.34,5.31-.97,.9-.34,1.74-.77,2.53-1.24,2.06-.9,7.56-3.3,14.53-6.19,6.17-2.56,13.48-5.5,20.48-8.11,13.01,7.89,28.32,12.45,44.61,12.45h56.46c23.75,0,45.36-9.66,60.91-25.23,15.57-15.55,25.24-37.16,25.23-60.91h0c0-23.75-9.66-45.36-25.23-60.91Z"/>
  <circle class="uuid-feb3ca4c-16fb-468f-8920-5bf643bb763e" cx="200.57" cy="177.59" r="13.59"/>
  <circle class="uuid-feb3ca4c-16fb-468f-8920-5bf643bb763e" cx="246.73" cy="177.59" r="13.59"/>
  <circle class="uuid-feb3ca4c-16fb-468f-8920-5bf643bb763e" cx="292.9" cy="177.59" r="13.59"/>
</svg>